<svg width="11" height="11" viewBox="0 0 11 11" fill="none" xmlns="http://www.w3.org/2000/svg">
<path d="M8.408 10.039L6.875 8.506L6.182 6.952L5.846 7.099L6.434 8.632V10.858H4.418V8.632L5.006 7.099L4.67 6.952L3.977 8.506L2.444 10.039L1.037 8.632L2.57 7.099L4.124 6.406L3.977 6.07L2.444 6.658H0.218V4.642H2.444L3.977 5.23L4.124 4.894L2.57 4.201L1.037 2.668L2.444 1.261L3.977 2.794L4.67 4.348L5.006 4.201L4.418 2.668V0.441999H6.434V2.668L5.846 4.201L6.182 4.348L6.875 2.794L8.408 1.261L9.815 2.668L8.282 4.201L6.728 4.894L6.875 5.23L8.408 4.642H10.634V6.658H8.408L6.875 6.07L6.728 6.406L8.282 7.099L9.815 8.632L8.408 10.039Z" fill="#F04F5E"/>
</svg>
