<svg width="24" height="14" viewBox="0 0 24 14" fill="none" xmlns="http://www.w3.org/2000/svg">
<path fill-rule="evenodd" clip-rule="evenodd" d="M12 0C7.41454 0 3.25621 2.45504 0.187788 6.44269C-0.0625959 6.76939 -0.0625959 7.22581 0.187788 7.55251C3.25621 11.545 7.41454 14 12 14C16.5855 14 20.7438 11.545 23.8122 7.55731C24.0626 7.23061 24.0626 6.77419 23.8122 6.44749C20.7438 2.45504 16.5855 0 12 0ZM12.3289 11.9293C9.28506 12.1167 6.7714 9.66163 6.96287 6.67811C7.11998 4.21826 9.15741 2.22443 11.6711 2.07069C14.7149 1.88332 17.2286 4.33837 17.0371 7.32189C16.8751 9.77694 14.8377 11.7708 12.3289 11.9293ZM9.28997 6.82704C9.18196 8.43171 10.537 9.75292 12.1767 9.65203C13.5268 9.57035 14.6266 8.49897 14.7149 7.16815C14.823 5.56349 13.4679 4.24228 11.8282 4.34317C10.4732 4.42965 9.37343 5.50103 9.28997 6.82704Z" fill="white"/>
</svg>
