<svg width="19" height="16" viewBox="0 0 19 16" fill="none" xmlns="http://www.w3.org/2000/svg">
<path d="M0.791666 7.20011H16.585L10.5375 1.37938C10.2208 1.07458 10.2085 0.568188 10.5102 0.248192C10.8114 -0.0714041 11.3125 -0.084204 11.6296 0.220592L18.5361 6.86851C18.8349 7.17091 19 7.5725 19 8.0001C19 8.42729 18.8349 8.82929 18.5222 9.14488L11.6292 15.7792C11.476 15.9268 11.2797 16 11.0833 16C10.8743 16 10.6653 15.9168 10.5098 15.7516C10.2081 15.4316 10.2204 14.9256 10.5371 14.6208L16.61 8.80009H0.791666C0.354666 8.80009 0 8.44169 0 8.0001C0 7.5585 0.354666 7.20011 0.791666 7.20011Z" fill="white"/>
</svg>
