<svg width="42" height="42" viewBox="0 0 42 42" fill="none" xmlns="http://www.w3.org/2000/svg">
<circle cx="21" cy="21" r="21" fill="#863BF8"/>
<path d="M19.9001 11.3047L11.8966 19.5803C11.4776 20.0136 10.7813 20.0304 10.3413 19.6177C9.90182 19.2055 9.88422 18.5197 10.3033 18.0858L19.4442 8.63483C19.86 8.22587 20.4122 8 21.0001 8C21.5875 8 22.1403 8.22587 22.5742 8.65379L31.6964 18.0864C31.8994 18.296 32 18.5647 32 18.8333C32 19.1193 31.8856 19.4053 31.6585 19.6182C31.2185 20.031 30.5227 20.0142 30.1036 19.5808L22.1001 11.2706V32.9167C22.1001 33.5147 21.6073 34 21.0001 34C20.3929 34 19.9001 33.5147 19.9001 32.9167V11.3047Z" fill="white"/>
</svg>
