<svg width="30" height="30" viewBox="0 0 30 30" fill="none" xmlns="http://www.w3.org/2000/svg">
<circle cx="15" cy="15" r="15" fill="white"/>
<path fill-rule="evenodd" clip-rule="evenodd" d="M11.5 8C11.5 9.10457 10.6046 10 9.5 10C8.39543 10 7.5 9.10457 7.5 8C7.5 6.89543 8.39543 6 9.5 6C10.6046 6 11.5 6.89543 11.5 8ZM8 22V11H11V22H8ZM20.1611 11C23.4121 11 24 13.152 24 16.0535V22H20.8349V16.7227C20.8349 15.4736 20.7815 13.8664 19.1333 13.8664C17.4624 13.8664 17.1193 15.2279 17.1193 16.6334V22H14V11.1913H17.1193V12.6616H17.1223C17.5504 11.8145 18.599 11 20.1611 11Z" fill="black"/>
</svg>
