<svg width="30" height="30" viewBox="0 0 30 30" fill="none" xmlns="http://www.w3.org/2000/svg">
<circle cx="15" cy="15" r="15" fill="white"/>
<path d="M19.6234 5.00395L17.2249 5C14.5302 5 12.7888 6.8353 12.7888 9.67593V11.8318H10.3771C10.1688 11.8318 10 12.0054 10 12.2195V15.3431C10 15.5572 10.1689 15.7306 10.3771 15.7306H12.7888V23.6126C12.7888 23.8266 12.9575 24 13.1659 24H16.3124C16.5208 24 16.6896 23.8265 16.6896 23.6126V15.7306H19.5093C19.7177 15.7306 19.8865 15.5572 19.8865 15.3431L19.8876 12.2195C19.8876 12.1167 19.8478 12.0182 19.7772 11.9455C19.7066 11.8728 19.6103 11.8318 19.5103 11.8318H16.6896V10.0042C16.6896 9.12583 16.8933 8.6799 18.0073 8.6799L19.623 8.67931C19.8312 8.67931 20 8.50576 20 8.29189V5.39137C20 5.1777 19.8314 5.00435 19.6234 5.00395Z" fill="black"/>
</svg>
