<svg width="30" height="30" viewBox="0 0 30 30" fill="none" xmlns="http://www.w3.org/2000/svg">
<circle cx="15" cy="15" r="15" fill="white"/>
<path fill-rule="evenodd" clip-rule="evenodd" d="M11.6017 6H19.3983C21.9357 6 24 8.0643 24 10.6017V18.3984C24 20.9357 21.9357 23 19.3984 23H11.6017C9.0643 23 7 20.9357 7 18.3984V10.6017C7 8.0643 9.0643 6 11.6017 6ZM19.3983 22.0034C21.3862 22.0034 23.0034 20.3862 23.0034 18.3984V10.6017C23.0034 8.61384 21.3862 6.99661 19.3984 6.99661H11.6017C9.61384 6.99661 7.99661 8.61384 7.99661 10.6017V18.3984C7.99661 20.3862 9.61384 22.0034 11.6017 22.0034H19.3983Z" fill="black"/>
<path fill-rule="evenodd" clip-rule="evenodd" d="M11 14.5C11 12.0187 13.0187 10 15.5 10C17.9813 10 20 12.0187 20 14.5C20 16.9813 17.9813 19 15.5 19C13.0187 19 11 16.9813 11 14.5ZM11.9648 14.5C11.9648 16.4493 13.5508 18.0352 15.5 18.0352C17.4493 18.0352 19.0352 16.4493 19.0352 14.5C19.0352 12.5508 17.4493 10.9648 15.5 10.9648C13.5508 10.9648 11.9648 12.5508 11.9648 14.5Z" fill="black"/>
<path fill-rule="evenodd" clip-rule="evenodd" d="M19 9.49993C19 8.67291 19.6728 8 20.4999 8C21.3271 8 22 8.67277 22 9.49993C22 10.3271 21.3271 11 20.4999 11C19.6728 11 19 10.3271 19 9.49993ZM19.4998 9.49993C19.4998 10.0512 19.9486 10.4999 20.4998 10.4999C21.0514 10.4999 21.5002 10.0512 21.5002 9.49993C21.5002 8.94831 21.0514 8.49993 20.4998 8.49993C19.9486 8.49993 19.4998 8.94831 19.4998 9.49993Z" fill="black"/>
</svg>
