<svg width="30" height="30" viewBox="0 0 30 30" fill="none" xmlns="http://www.w3.org/2000/svg">
<circle cx="15" cy="15" r="15" fill="white"/>
<path fill-rule="evenodd" clip-rule="evenodd" d="M22.5 8H6.5C5.11953 8.00046 4.00062 9.09338 4 10.4416V19.5584C4.00062 20.9066 5.11953 21.9997 6.5 22H22.5C23.8805 21.9997 24.9994 20.9066 25 19.5584V10.4416C24.9994 9.09338 23.8805 8.00046 22.5 8ZM6.5 8.97664H22.5C23.2202 8.97847 23.8381 9.47763 23.975 10.168L14.5 15.3248L5.025 10.168C5.16188 9.47763 5.77984 8.97847 6.5 8.97664ZM5 19.5537C5.00234 20.3617 5.67266 21.0162 6.5 21.0186H22.5C23.3281 21.0179 23.9994 20.3624 24 19.5537V11.2717L14.745 16.3111C14.6706 16.3536 14.5861 16.3756 14.5 16.3747C14.4142 16.3733 14.33 16.3514 14.255 16.3111L5 11.2717V19.5537Z" fill="black"/>
</svg>
